<svg width="188" height="188" viewBox="0 0 188 188" fill="none" xmlns="http://www.w3.org/2000/svg">
<g clip-path="url(#clip0_210_92)">
<path d="M93.9827 1.55945C52.1006 1.55945 18 35.7287 18 77.6951C18 129.815 85.9936 182.49 88.8988 185.713C91.6309 188.762 96.3691 188.728 99.0667 185.713C101.972 182.49 169.965 129.815 169.965 77.6951C170 35.7287 135.899 1.55945 93.9827 1.55945Z" fill="#D1D3D4"/>
<path d="M92.5993 0C51.5472 0 18.1729 33.4761 18.1729 74.5762C18.1729 125.622 84.7832 177.222 87.6191 180.376C90.2821 183.356 94.9511 183.356 97.5795 180.376C100.415 177.222 167.026 125.622 167.026 74.5762C167.06 33.4761 133.651 0 92.5993 0Z" fill="white"/>
<path d="M92.5993 12.6488C57.2537 12.6488 28.4792 41.4813 28.4792 76.8981C28.4792 120.874 85.8553 165.336 88.3108 168.039C90.5934 170.603 94.6052 170.603 96.8878 168.039C99.3434 165.301 156.719 120.874 156.719 76.8981C156.754 41.4813 127.98 12.6488 92.5993 12.6488Z" fill="url(#paint0_linear_210_92)"/>
<path d="M92.5993 45.5705C75.4453 45.5705 61.473 59.5709 61.473 76.7594C61.473 83.9329 63.894 90.5519 67.975 95.8194C67.9058 95.8887 67.802 95.958 67.7329 96.0273L59.9859 103.79C58.1875 105.592 58.1875 108.503 59.9859 110.27L60.8505 111.137C62.6489 112.939 65.554 112.939 67.3179 111.137L75.0648 103.374C75.2378 103.201 75.3761 103.027 75.5144 102.82C80.4255 106.042 86.2703 107.914 92.5647 107.914C109.719 107.914 123.691 93.9134 123.691 76.7248C123.691 59.5362 109.788 45.5705 92.5993 45.5705Z" fill="white"/>
<path d="M92.5993 55.9668C81.1518 55.9668 71.8484 65.2888 71.8484 76.7594C71.8484 88.23 81.1518 97.5521 92.5993 97.5521C104.047 97.5521 113.35 88.23 113.35 76.7594C113.35 65.2888 104.047 55.9668 92.5993 55.9668Z" fill="url(#paint1_linear_210_92)"/>
<path opacity="0.76" d="M100.669 65C98.1097 65 96 67.1139 96 69.6783C96 72.2428 98.1097 74.3567 100.669 74.3567C103.228 74.3567 105.338 72.2428 105.338 69.6783C105.338 67.1139 103.263 65 100.669 65Z" fill="white"/>
<g opacity="0.75">
<path d="M128.919 84.2448L135.145 77.8684C135.732 77.2446 135.732 76.2743 135.145 75.6505L128.919 69.2741C127.813 68.1651 125.98 69.2394 126.36 70.7642C126.844 72.6702 127.086 74.6802 127.086 76.7594C127.086 78.8387 126.844 80.8486 126.36 82.7546C125.98 84.2794 127.813 85.3537 128.919 84.2448Z" fill="white"/>
</g>
</g>
<defs>
<linearGradient id="paint0_linear_210_92" x1="92.6116" y1="12.649" x2="92.6116" y2="169.98" gradientUnits="userSpaceOnUse">
<stop stop-color="#FF6A00"/>
<stop offset="1" stop-color="#EE0979"/>
</linearGradient>
<linearGradient id="paint1_linear_210_92" x1="92.6116" y1="55.9669" x2="92.6116" y2="97.5522" gradientUnits="userSpaceOnUse">
<stop stop-color="#FF6A00"/>
<stop offset="1" stop-color="#EE0979"/>
</linearGradient>
<clipPath id="clip0_210_92">
<rect width="152" height="188" fill="white" transform="translate(18)"/>
</clipPath>
</defs>
</svg>
