<svg width="819" height="188" viewBox="0 0 819 188" fill="none" xmlns="http://www.w3.org/2000/svg">
<path d="M195.248 42.4H232.496V55.2H209.328V80.16H227.504V92.96H209.328V132H195.248V42.4ZM239.248 42.4H277.648V55.2H253.328V78.88H272.656V91.68H253.328V119.2H277.648V132H239.248V42.4ZM296.628 42.4H315.7L330.292 132H316.212L313.652 114.208V114.464H297.652L295.092 132H282.036L296.628 42.4ZM311.988 102.304L305.716 58.016H305.46L299.316 102.304H311.988ZM342.256 55.2H327.536V42.4H371.056V55.2H356.336V132H342.256V55.2ZM377.873 42.4H391.953V78.88H407.057V42.4H421.137V132H407.057V91.68H391.953V132H377.873V42.4ZM431.623 42.4H470.023V55.2H445.703V78.88H465.031V91.68H445.703V119.2H470.023V132H431.623V42.4ZM478.123 42.4H498.987C506.24 42.4 511.531 44.1067 514.859 47.52C518.187 50.848 519.851 56.0107 519.851 63.008V68.512C519.851 77.8133 516.779 83.7013 510.635 86.176V86.432C514.048 87.456 516.438 89.5467 517.803 92.704C519.254 95.8613 519.979 100.085 519.979 105.376V121.12C519.979 123.68 520.064 125.771 520.235 127.392C520.406 128.928 520.832 130.464 521.515 132H507.179C506.667 130.549 506.326 129.184 506.155 127.904C505.984 126.624 505.899 124.32 505.899 120.992V104.608C505.899 100.512 505.216 97.6533 503.851 96.032C502.571 94.4107 500.31 93.6 497.067 93.6H492.203V132H478.123V42.4ZM497.323 80.8C500.139 80.8 502.23 80.0747 503.595 78.624C505.046 77.1733 505.771 74.7413 505.771 71.328V64.416C505.771 61.1733 505.174 58.8267 503.979 57.376C502.87 55.9253 501.078 55.2 498.603 55.2H492.203V80.8H497.323ZM550.248 42.4H587.496V55.2H564.328V80.16H582.504V92.96H564.328V132H550.248V42.4ZM594.248 42.4H608.328V132H594.248V42.4ZM618.873 42.4H636.537L650.233 96.032H650.489V42.4H663.033V132H648.569L631.673 66.592H631.417V132H618.873V42.4ZM673.498 42.4H695.002C701.999 42.4 707.247 44.2773 710.746 48.032C714.245 51.7867 715.994 57.2907 715.994 64.544V109.856C715.994 117.109 714.245 122.613 710.746 126.368C707.247 130.123 701.999 132 695.002 132H673.498V42.4ZM694.746 119.2C697.05 119.2 698.799 118.517 699.994 117.152C701.274 115.787 701.914 113.568 701.914 110.496V63.904C701.914 60.832 701.274 58.6133 699.994 57.248C698.799 55.8827 697.05 55.2 694.746 55.2H687.578V119.2H694.746ZM725.498 42.4H763.898V55.2H739.578V78.88H758.906V91.68H739.578V119.2H763.898V132H725.498V42.4ZM771.998 42.4H792.862C800.115 42.4 805.406 44.1067 808.734 47.52C812.062 50.848 813.726 56.0107 813.726 63.008V68.512C813.726 77.8133 810.654 83.7013 804.51 86.176V86.432C807.923 87.456 810.313 89.5467 811.678 92.704C813.129 95.8613 813.854 100.085 813.854 105.376V121.12C813.854 123.68 813.939 125.771 814.11 127.392C814.281 128.928 814.707 130.464 815.39 132H801.054C800.542 130.549 800.201 129.184 800.03 127.904C799.859 126.624 799.774 124.32 799.774 120.992V104.608C799.774 100.512 799.091 97.6533 797.726 96.032C796.446 94.4107 794.185 93.6 790.942 93.6H786.078V132H771.998V42.4ZM791.198 80.8C794.014 80.8 796.105 80.0747 797.47 78.624C798.921 77.1733 799.646 74.7413 799.646 71.328V64.416C799.646 61.1733 799.049 58.8267 797.854 57.376C796.745 55.9253 794.953 55.2 792.478 55.2H786.078V80.8H791.198Z" fill="#27272A"/>
<g clip-path="url(#clip0_210_58)">
<path d="M75.9827 1.55945C34.1006 1.55945 0 35.7287 0 77.6951C0 129.815 67.9936 182.49 70.8988 185.713C73.6309 188.762 78.3691 188.728 81.0667 185.713C83.9718 182.49 151.965 129.815 151.965 77.6951C152 35.7287 117.899 1.55945 75.9827 1.55945Z" fill="#D1D3D4"/>
<path d="M74.5993 0C33.5472 0 0.172913 33.4761 0.172913 74.5762C0.172913 125.622 66.7832 177.222 69.6191 180.376C72.2821 183.356 76.9511 183.356 79.5795 180.376C82.4155 177.222 149.026 125.622 149.026 74.5762C149.06 33.4761 115.651 0 74.5993 0Z" fill="white"/>
<path d="M74.5993 12.6489C39.2537 12.6489 10.4792 41.4813 10.4792 76.8981C10.4792 120.874 67.8553 165.336 70.3108 168.039C72.5934 170.604 76.6052 170.604 78.8878 168.039C81.3434 165.301 138.719 120.874 138.719 76.8981C138.754 41.4813 109.98 12.6489 74.5993 12.6489Z" fill="url(#paint0_linear_210_58)"/>
<path d="M74.5993 45.5705C57.4453 45.5705 43.473 59.5709 43.473 76.7594C43.473 83.9329 45.894 90.5519 49.975 95.8193C49.9058 95.8886 49.802 95.958 49.7329 96.0273L41.9859 103.79C40.1875 105.592 40.1875 108.503 41.9859 110.27L42.8505 111.137C44.6489 112.939 47.554 112.939 49.3179 111.137L57.0648 103.374C57.2378 103.201 57.3761 103.027 57.5144 102.82C62.4255 106.042 68.2703 107.914 74.5647 107.914C91.7188 107.914 105.691 93.9133 105.691 76.7248C105.691 59.5362 91.7879 45.5705 74.5993 45.5705Z" fill="white"/>
<path d="M74.5993 55.9668C63.1518 55.9668 53.8484 65.2888 53.8484 76.7594C53.8484 88.23 63.1518 97.5521 74.5993 97.5521C86.0469 97.5521 95.3502 88.23 95.3502 76.7594C95.3502 65.2888 86.0469 55.9668 74.5993 55.9668Z" fill="url(#paint1_linear_210_58)"/>
<path opacity="0.76" d="M82.6689 65C80.1097 65 78 67.1139 78 69.6783C78 72.2428 80.1097 74.3567 82.6689 74.3567C85.2282 74.3567 87.3379 72.2428 87.3379 69.6783C87.3379 67.1139 85.2628 65 82.6689 65Z" fill="white"/>
<g opacity="0.75">
<path d="M110.919 84.2448L117.145 77.8684C117.732 77.2446 117.732 76.2743 117.145 75.6505L110.919 69.2741C109.813 68.1651 107.98 69.2394 108.36 70.7642C108.844 72.6702 109.086 74.6802 109.086 76.7594C109.086 78.8387 108.844 80.8486 108.36 82.7546C107.98 84.2794 109.813 85.3537 110.919 84.2448Z" fill="white"/>
</g>
</g>
<defs>
<linearGradient id="paint0_linear_210_58" x1="74.6116" y1="12.649" x2="74.6116" y2="169.98" gradientUnits="userSpaceOnUse">
<stop stop-color="#FF6A00"/>
<stop offset="1" stop-color="#EE0979"/>
</linearGradient>
<linearGradient id="paint1_linear_210_58" x1="74.6116" y1="55.9669" x2="74.6116" y2="97.5522" gradientUnits="userSpaceOnUse">
<stop stop-color="#FF6A00"/>
<stop offset="1" stop-color="#EE0979"/>
</linearGradient>
<clipPath id="clip0_210_58">
<rect width="152" height="188" fill="white"/>
</clipPath>
</defs>
</svg>
