<?xml version="1.0" encoding="utf-8"?>
<!-- Generator: Adobe Illustrator 23.0.3, SVG Export Plug-In . SVG Version: 6.00 Build 0)  -->
<svg version="1.1" id="Layer_1" xmlns="http://www.w3.org/2000/svg" xmlns:xlink="http://www.w3.org/1999/xlink" x="0px" y="0px"
	 viewBox="0 0 439.5 542.5" style="enable-background:new 0 0 439.5 542.5;" xml:space="preserve">
<style type="text/css">
	.st0{fill:#D1D3D4;}
	.st1{fill:#FFFFFF;}
	.st2{fill:url(#SVGID_1_);}
	.st3{fill:url(#SVGID_2_);}
	.st4{opacity:0.76;fill:#FFFFFF;}
	.st5{opacity:0.75;}
</style>
<g>
	<g>
		<path class="st0" d="M219.7,4.5C98.6,4.5,0,103.1,0,224.2c0,150.4,196.6,302.4,205,311.7c7.9,8.8,21.6,8.7,29.4,0
			c8.4-9.3,205-161.3,205-311.7C439.5,103.1,340.9,4.5,219.7,4.5z"/>
	</g>
</g>
<g>
	<g>
		<path class="st1" d="M215.7,0C97,0,0.5,96.6,0.5,215.2c0,147.3,192.6,296.2,200.8,305.3c7.7,8.6,21.2,8.6,28.8,0
			c8.2-9.1,200.8-158,200.8-305.3C431,96.6,334.4,0,215.7,0z"/>
	</g>
</g>
<g>
	<g>
		<linearGradient id="SVGID_1_" gradientUnits="userSpaceOnUse" x1="215.7354" y1="36.5003" x2="215.7354" y2="490.4997">
			<stop  offset="0" style="stop-color:#FF6A00"/>
			<stop  offset="1" style="stop-color:#EE0979"/>
		</linearGradient>
		<path class="st2" d="M215.7,36.5c-102.2,0-185.4,83.2-185.4,185.4c0,126.9,165.9,255.2,173,263c6.6,7.4,18.2,7.4,24.8,0
			c7.1-7.9,173-136.1,173-263C401.2,119.7,318,36.5,215.7,36.5z"/>
	</g>
</g>
<path class="st1" d="M215.7,131.5c-49.6,0-90,40.4-90,90c0,20.7,7,39.8,18.8,55c-0.2,0.2-0.5,0.4-0.7,0.6l-22.4,22.4
	c-5.2,5.2-5.2,13.6,0,18.7l2.5,2.5c5.2,5.2,13.6,5.2,18.7,0l22.4-22.4c0.5-0.5,0.9-1,1.3-1.6c14.2,9.3,31.1,14.7,49.3,14.7
	c49.6,0,90-40.4,90-90S265.4,131.5,215.7,131.5z"/>
<linearGradient id="SVGID_2_" gradientUnits="userSpaceOnUse" x1="215.7354" y1="161.5003" x2="215.7354" y2="281.5003">
	<stop  offset="0" style="stop-color:#FF6A00"/>
	<stop  offset="1" style="stop-color:#EE0979"/>
</linearGradient>
<path class="st3" d="M215.7,161.5c-33.1,0-60,26.9-60,60s26.9,60,60,60c33.1,0,60-26.9,60-60S248.8,161.5,215.7,161.5z"/>
<path class="st4" d="M215.7,176.5c-7.4,0-13.5,6.1-13.5,13.5s6.1,13.5,13.5,13.5c7.4,0,13.5-6.1,13.5-13.5
	C229.2,182.6,223.2,176.5,215.7,176.5z"/>
<g class="st5">
	<path class="st1" d="M326.5,243.1l18-18.4c1.7-1.8,1.7-4.6,0-6.4l-18-18.4c-3.2-3.2-8.5-0.1-7.4,4.3c1.4,5.5,2.1,11.3,2.1,17.3
		s-0.7,11.8-2.1,17.3C318,243.2,323.3,246.3,326.5,243.1z"/>
</g>
</svg>
